<?xml version="1.0" standalone="no"?>
<!DOCTYPE svg PUBLIC "-//W3C//DTD SVG 20010904//EN"
 "http://www.w3.org/TR/2001/REC-SVG-20010904/DTD/svg10.dtd">
<svg version="1.0" xmlns="http://www.w3.org/2000/svg"
 width="3333.000000pt" height="3333.000000pt" viewBox="0 0 3333.000000 3333.000000"
 preserveAspectRatio="xMidYMid meet">

<g transform="translate(0.000000,3333.000000) scale(0.100000,-0.100000)"
fill="#000000" stroke="none">
<path d="M11007 23273 c-4 -3 -7 -214 -7 -467 0 -254 -4 -466 -8 -471 -4 -6
-27 -24 -52 -40 -152 -102 -335 -282 -437 -431 -171 -250 -275 -532 -302 -818
-15 -148 -15 -2316 -1 -2457 6 -57 18 -142 26 -189 43 -230 180 -536 324 -721
107 -137 249 -274 372 -357 25 -18 54 -39 62 -48 14 -14 16 -113 16 -954 l0
-938 -97 -68 c-123 -87 -298 -262 -385 -384 -170 -241 -279 -522 -314 -810
-17 -148 -20 -2322 -3 -2496 52 -527 314 -976 747 -1278 60 -42 233 -131 342
-177 218 -90 419 -139 575 -139 159 0 355 48 585 144 468 194 821 570 974
1037 60 183 76 283 86 524 11 269 13 1905 2 1905 -6 0 -932 -1648 -1020 -1813
-2 -5 1 -45 8 -89 10 -63 10 -92 1 -136 -42 -196 -114 -335 -231 -450 -77 -76
-150 -123 -248 -160 -95 -36 -219 -36 -314 0 -98 37 -171 84 -248 160 -115
113 -164 207 -231 438 -10 35 -13 296 -16 1213 -3 1035 -2 1167 11 1167 9 0
22 -12 30 -27 8 -16 31 -44 51 -63 20 -19 45 -52 56 -72 40 -77 209 -188 339
-223 71 -19 216 -19 289 0 208 54 363 191 481 425 47 92 160 442 170 525 5 39
13 108 19 155 14 117 33 967 31 1355 -1 176 -2 519 -1 762 l1 442 88 60 c365
252 613 627 703 1064 31 151 38 422 38 1382 0 988 -8 1304 -39 1452 -90 444
-347 836 -707 1080 l-83 57 0 445 c0 245 -3 456 -6 469 l-6 22 -832 0 c-458 0
-836 -3 -839 -7z m1485 -2695 c6 -1128 3 -1938 -8 -1938 -6 0 -28 28 -48 63
-101 173 -245 290 -423 344 -79 24 -237 23 -318 -1 -129 -40 -282 -140 -327
-216 -12 -19 -43 -61 -69 -92 -26 -32 -49 -63 -51 -70 -2 -6 -12 -9 -21 -5
-16 6 -17 82 -15 1133 2 862 6 1128 15 1131 6 2 19 -11 29 -29 9 -18 32 -46
51 -61 18 -16 42 -46 53 -67 40 -79 178 -177 309 -219 91 -30 262 -30 352 0
173 57 305 166 404 335 65 110 65 110 67 -308z"/>
<path d="M15476 14083 c-4 -16 -11 -64 -17 -108 -6 -44 -15 -109 -20 -145 -5
-36 -12 -90 -15 -120 -3 -30 -9 -64 -14 -75 -4 -11 -13 -58 -19 -105 -26 -207
-52 -410 -61 -466 -6 -34 -10 -76 -10 -95 0 -18 -4 -58 -10 -88 -5 -31 -14
-103 -20 -161 -6 -58 -15 -136 -20 -175 -5 -38 -14 -119 -20 -180 -6 -60 -15
-150 -20 -200 -27 -262 -72 -782 -90 -1040 -6 -88 -15 -204 -21 -258 -5 -54
-9 -127 -9 -162 l0 -65 4010 0 c3812 0 4010 1 4010 18 0 24 -43 455 -70 712
-5 47 -12 110 -15 140 -3 30 -10 87 -15 125 -5 39 -14 111 -20 160 -17 142
-36 287 -60 458 -48 349 -81 581 -89 627 -6 30 -15 89 -21 130 -27 176 -35
226 -80 485 -5 28 -16 84 -25 125 -9 41 -20 98 -25 125 -9 58 -26 148 -40 220
-5 28 -13 71 -16 98 l-7 47 -2731 0 -2731 0 45 -26 c120 -70 355 -167 523
-218 230 -70 446 -108 717 -126 319 -22 764 27 1145 127 151 40 195 48 271 48
l92 0 36 -38 c20 -21 36 -45 36 -53 0 -8 5 -14 10 -14 6 0 10 -30 10 -70 0
-40 -4 -70 -10 -70 -5 0 -10 -6 -10 -14 0 -25 -69 -80 -121 -98 -84 -29 -364
-95 -514 -122 -217 -39 -369 -56 -586 -65 -377 -15 -706 11 -999 80 -261 61
-590 187 -785 299 -27 16 -60 33 -73 39 -28 13 -86 54 -90 64 -2 4 -9 7 -15 7
-10 0 -78 43 -103 65 -6 6 -22 17 -34 25 -27 18 -169 129 -188 147 -11 10
-129 13 -537 13 l-523 0 -6 -27z"/>
</g>
</svg>
